<?xml version="1.0" encoding="utf-8" ?>
<svg baseProfile="tiny" height="468" version="1.2" width="574" xmlns="http://www.w3.org/2000/svg" xmlns:ev="http://www.w3.org/2001/xml-events" xmlns:xlink="http://www.w3.org/1999/xlink"><defs /><polygon fill="black" points="449.0,434.0 448.0,435.0 446.0,435.0 445.0,436.0 445.0,440.0 446.0,441.0 452.0,441.0 453.0,440.0 454.0,440.0 454.0,434.0" /><polygon fill="black" points="117.0,434.0 116.0,435.0 114.0,435.0 113.0,436.0 113.0,440.0 114.0,441.0 120.0,441.0 121.0,440.0 122.0,440.0 122.0,434.0" /><polygon fill="black" points="299.0,403.0 298.0,404.0 296.0,404.0 295.0,405.0 295.0,409.0 296.0,410.0 302.0,410.0 303.0,409.0 304.0,409.0 304.0,403.0" /><polygon fill="black" points="338.0,401.0 337.0,402.0 336.0,402.0 335.0,403.0 331.0,403.0 330.0,404.0 330.0,408.0 331.0,409.0 333.0,409.0 336.0,412.0 344.0,412.0 347.0,415.0 347.0,440.0 348.0,441.0 348.0,442.0 351.0,442.0 352.0,443.0 417.0,443.0 418.0,442.0 419.0,442.0 420.0,441.0 422.0,441.0 422.0,436.0 421.0,435.0 420.0,435.0 419.0,434.0 418.0,434.0 417.0,433.0 416.0,433.0 415.0,432.0 361.0,432.0 358.0,429.0 358.0,403.0 357.0,402.0 356.0,402.0 355.0,401.0" /><polygon fill="black" points="247.0,401.0 246.0,402.0 245.0,402.0 244.0,403.0 243.0,403.0 243.0,404.0 242.0,405.0 240.0,405.0 240.0,411.0 244.0,411.0 245.0,412.0 268.0,412.0 269.0,411.0 270.0,411.0 271.0,410.0 272.0,410.0 272.0,405.0 271.0,404.0 270.0,404.0 269.0,403.0 268.0,403.0 267.0,402.0 266.0,402.0 265.0,401.0" /><polygon fill="black" points="525.0,351.0 523.0,353.0 523.0,366.0 524.0,367.0 530.0,367.0 530.0,352.0 529.0,351.0" /><polygon fill="black" points="179.0,349.0 178.0,350.0 178.0,357.0 180.0,359.0 186.0,359.0 186.0,350.0 185.0,349.0" /><polygon fill="black" points="179.0,327.0 177.0,329.0 176.0,329.0 175.0,330.0 174.0,330.0 173.0,331.0 172.0,331.0 171.0,332.0 170.0,332.0 170.0,339.0 176.0,339.0 177.0,338.0 178.0,338.0 181.0,335.0 182.0,335.0 184.0,333.0 185.0,333.0 185.0,327.0" /><polygon fill="black" points="240.0,326.0 239.0,327.0 238.0,327.0 236.0,329.0 235.0,329.0 233.0,331.0 232.0,331.0 231.0,332.0 231.0,338.0 237.0,338.0 239.0,336.0 240.0,336.0 241.0,335.0 242.0,335.0 243.0,334.0 244.0,334.0 245.0,333.0 246.0,333.0 246.0,326.0" /><polygon fill="black" points="231.0,306.0 230.0,307.0 230.0,308.0 229.0,309.0 229.0,313.0 230.0,314.0 230.0,315.0 239.0,315.0 239.0,309.0 236.0,306.0" /><polygon fill="black" points="450.0,285.0 450.0,286.0 449.0,287.0 449.0,291.0 450.0,292.0 455.0,292.0 456.0,291.0 456.0,285.0" /><polygon fill="black" points="205.0,266.0 204.0,267.0 203.0,267.0 202.0,268.0 200.0,268.0 198.0,270.0 198.0,271.0 197.0,272.0 197.0,274.0 196.0,275.0 196.0,302.0 197.0,303.0 197.0,304.0 200.0,304.0 202.0,306.0 202.0,430.0 200.0,432.0 156.0,432.0 155.0,433.0 154.0,433.0 153.0,434.0 151.0,434.0 151.0,440.0 152.0,441.0 152.0,442.0 153.0,442.0 154.0,443.0 213.0,443.0 214.0,442.0 214.0,436.0 213.0,435.0 213.0,416.0 214.0,415.0 214.0,412.0 215.0,411.0 215.0,410.0 217.0,408.0 218.0,408.0 218.0,407.0 219.0,406.0 219.0,375.0 218.0,375.0 217.0,374.0 215.0,374.0 213.0,372.0 213.0,268.0 212.0,267.0 211.0,267.0 210.0,266.0" /><polygon fill="black" points="103.0,224.0 103.0,230.0 104.0,231.0 123.0,231.0 124.0,232.0 124.0,236.0 123.0,237.0 123.0,264.0 121.0,266.0 91.0,266.0 90.0,265.0 80.0,265.0 79.0,266.0 37.0,266.0 34.0,263.0 34.0,251.0 33.0,250.0 33.0,246.0 32.0,245.0 26.0,245.0 25.0,246.0 24.0,246.0 24.0,247.0 23.0,248.0 23.0,249.0 22.0,250.0 22.0,440.0 23.0,441.0 23.0,442.0 24.0,443.0 86.0,443.0 87.0,442.0 88.0,442.0 89.0,441.0 90.0,441.0 90.0,436.0 89.0,435.0 88.0,435.0 87.0,434.0 86.0,434.0 85.0,433.0 84.0,433.0 83.0,432.0 36.0,432.0 33.0,429.0 33.0,406.0 34.0,405.0 35.0,406.0 35.0,407.0 36.0,408.0 46.0,408.0 47.0,407.0 47.0,391.0 48.0,390.0 48.0,389.0 54.0,383.0 54.0,376.0 53.0,376.0 52.0,375.0 38.0,375.0 37.0,376.0 36.0,376.0 35.0,377.0 35.0,378.0 34.0,379.0 33.0,378.0 33.0,331.0 34.0,330.0 35.0,331.0 35.0,332.0 36.0,333.0 47.0,333.0 47.0,316.0 48.0,315.0 48.0,314.0 54.0,308.0 54.0,302.0 52.0,300.0 38.0,300.0 37.0,301.0 36.0,301.0 35.0,302.0 35.0,303.0 34.0,304.0 33.0,303.0 33.0,281.0 37.0,277.0 171.0,277.0 172.0,276.0 173.0,276.0 173.0,275.0 174.0,274.0 175.0,274.0 175.0,268.0 172.0,268.0 171.0,267.0 170.0,267.0 169.0,266.0 139.0,266.0 136.0,263.0 136.0,230.0 135.0,229.0 135.0,227.0 133.0,225.0 131.0,225.0 130.0,224.0" /><polygon fill="black" points="456.0,214.0 454.0,216.0 454.0,235.0 461.0,235.0 461.0,215.0 460.0,214.0" /><polygon fill="black" points="433.0,214.0 433.0,215.0 432.0,216.0 432.0,231.0 433.0,232.0 433.0,234.0 434.0,235.0 434.0,236.0 441.0,236.0 441.0,228.0 440.0,227.0 440.0,214.0" /><polygon fill="black" points="482.0,202.0 481.0,203.0 468.0,203.0 467.0,204.0 467.0,210.0 486.0,210.0 487.0,209.0 489.0,209.0 489.0,203.0 488.0,202.0" /><polygon fill="black" points="408.0,202.0 406.0,204.0 406.0,208.0 407.0,209.0 407.0,210.0 431.0,210.0 431.0,202.0 425.0,202.0 424.0,203.0 415.0,203.0 414.0,202.0" /><polygon fill="black" points="482.0,183.0 482.0,189.0 489.0,189.0 489.0,183.0" /><polygon fill="black" points="409.0,182.0 408.0,183.0 407.0,183.0 407.0,189.0 415.0,189.0 415.0,183.0 414.0,182.0" /><polygon fill="black" points="467.0,173.0 466.0,174.0 466.0,180.0 468.0,182.0 468.0,187.0 469.0,188.0 479.0,188.0 479.0,182.0 478.0,181.0 479.0,180.0 489.0,180.0 489.0,173.0" /><polygon fill="black" points="408.0,172.0 407.0,173.0 406.0,173.0 406.0,179.0 407.0,180.0 418.0,180.0 419.0,181.0 417.0,183.0 417.0,187.0 418.0,188.0 423.0,188.0 424.0,189.0 430.0,189.0 431.0,188.0 431.0,184.0 432.0,183.0 432.0,173.0 431.0,172.0 425.0,172.0 424.0,173.0 414.0,173.0 413.0,172.0" /><polygon fill="black" points="300.0,168.0 299.0,169.0 298.0,169.0 298.0,175.0 299.0,176.0 307.0,176.0 307.0,168.0" /><polygon fill="black" points="318.0,160.0 318.0,166.0 319.0,167.0 319.0,168.0 322.0,171.0 322.0,172.0 323.0,173.0 323.0,174.0 324.0,175.0 330.0,175.0 330.0,169.0 328.0,167.0 328.0,166.0 327.0,165.0 327.0,164.0 326.0,163.0 326.0,162.0 325.0,161.0 325.0,160.0" /><polygon fill="black" points="470.0,151.0 469.0,152.0 468.0,152.0 468.0,158.0 473.0,158.0 474.0,159.0 481.0,159.0 482.0,160.0 489.0,160.0 489.0,153.0 488.0,153.0 487.0,152.0 475.0,152.0 474.0,151.0" /><polygon fill="black" points="422.0,151.0 421.0,152.0 409.0,152.0 408.0,153.0 407.0,153.0 407.0,160.0 415.0,160.0 416.0,159.0 423.0,159.0 424.0,158.0 429.0,158.0 429.0,152.0 428.0,152.0 427.0,151.0" /><polygon fill="black" points="454.0,127.0 454.0,142.0 455.0,143.0 461.0,143.0 461.0,127.0" /><polygon fill="black" points="434.0,127.0 434.0,128.0 433.0,129.0 433.0,133.0 432.0,134.0 432.0,147.0 433.0,148.0 433.0,149.0 440.0,149.0 440.0,135.0 441.0,134.0 441.0,127.0" /><polygon fill="black" points="180.0,79.0 179.0,80.0 179.0,87.0 180.0,88.0 180.0,89.0 186.0,89.0 187.0,88.0 187.0,80.0 186.0,79.0" /><polygon fill="black" points="180.0,57.0 178.0,59.0 177.0,59.0 176.0,60.0 175.0,60.0 174.0,61.0 173.0,61.0 171.0,63.0 171.0,69.0 177.0,69.0 178.0,68.0 179.0,68.0 182.0,65.0 183.0,65.0 185.0,63.0 186.0,63.0 186.0,57.0" /><polygon fill="black" points="105.0,31.0 104.0,32.0 104.0,36.0 105.0,37.0 112.0,37.0 112.0,31.0" /><polygon fill="black" points="275.0,30.0 274.0,31.0 274.0,35.0 275.0,36.0 282.0,36.0 282.0,35.0 283.0,34.0 283.0,30.0" /><polygon fill="black" points="459.0,29.0 458.0,30.0 456.0,30.0 455.0,31.0 455.0,35.0 456.0,36.0 462.0,36.0 463.0,35.0 464.0,35.0 464.0,29.0" /><polygon fill="black" points="147.0,28.0 146.0,29.0 145.0,29.0 144.0,30.0 140.0,30.0 139.0,31.0 139.0,35.0 140.0,36.0 142.0,36.0 143.0,37.0 143.0,38.0 144.0,38.0 145.0,39.0 200.0,39.0 203.0,42.0 203.0,164.0 202.0,165.0 199.0,165.0 198.0,166.0 197.0,166.0 197.0,167.0 196.0,168.0 196.0,195.0 197.0,196.0 197.0,198.0 198.0,199.0 198.0,200.0 199.0,201.0 200.0,201.0 201.0,202.0 202.0,202.0 203.0,203.0 215.0,203.0 216.0,202.0 217.0,202.0 218.0,201.0 219.0,201.0 220.0,200.0 220.0,198.0 221.0,197.0 221.0,166.0 220.0,166.0 219.0,165.0 215.0,165.0 214.0,164.0 214.0,42.0 218.0,38.0 225.0,38.0 226.0,39.0 225.0,40.0 224.0,40.0 223.0,41.0 223.0,42.0 222.0,43.0 222.0,51.0 223.0,52.0 223.0,53.0 240.0,53.0 241.0,54.0 243.0,54.0 250.0,61.0 256.0,61.0 257.0,60.0 257.0,41.0 256.0,40.0 255.0,40.0 254.0,39.0 247.0,39.0 246.0,38.0 247.0,37.0 251.0,37.0 251.0,31.0 250.0,30.0 246.0,30.0 245.0,29.0 244.0,29.0 243.0,28.0" /><polygon fill="black" points="26.0,28.0 25.0,29.0 24.0,29.0 23.0,30.0 23.0,31.0 22.0,32.0 22.0,220.0 23.0,221.0 23.0,222.0 26.0,225.0 32.0,225.0 33.0,224.0 33.0,223.0 34.0,222.0 34.0,207.0 38.0,203.0 39.0,203.0 40.0,204.0 47.0,204.0 48.0,203.0 52.0,203.0 53.0,204.0 54.0,204.0 56.0,206.0 63.0,206.0 64.0,205.0 65.0,205.0 66.0,204.0 98.0,204.0 99.0,205.0 109.0,205.0 110.0,204.0 121.0,204.0 122.0,205.0 126.0,205.0 127.0,206.0 128.0,206.0 129.0,207.0 135.0,207.0 138.0,204.0 139.0,204.0 140.0,203.0 171.0,203.0 172.0,202.0 176.0,202.0 176.0,196.0 174.0,196.0 173.0,195.0 173.0,194.0 172.0,194.0 171.0,193.0 170.0,193.0 169.0,192.0 36.0,192.0 33.0,189.0 33.0,148.0 34.0,147.0 35.0,148.0 55.0,148.0 56.0,147.0 56.0,141.0 49.0,134.0 49.0,133.0 48.0,132.0 48.0,125.0 47.0,124.0 47.0,123.0 48.0,122.0 48.0,115.0 47.0,114.0 47.0,113.0 48.0,112.0 48.0,101.0 47.0,100.0 47.0,99.0 48.0,98.0 48.0,81.0 47.0,80.0 46.0,80.0 45.0,79.0 37.0,79.0 36.0,80.0 35.0,80.0 34.0,81.0 33.0,80.0 33.0,43.0 37.0,39.0 77.0,39.0 78.0,38.0 79.0,38.0 80.0,37.0 81.0,37.0 81.0,32.0 80.0,31.0 79.0,31.0 78.0,30.0 77.0,30.0 76.0,29.0 75.0,29.0 74.0,28.0" /><polygon fill="black" points="498.0,27.0 497.0,28.0 496.0,28.0 495.0,29.0 491.0,29.0 490.0,30.0 490.0,34.0 491.0,35.0 493.0,35.0 494.0,36.0 495.0,36.0 496.0,37.0 529.0,37.0 532.0,40.0 532.0,430.0 530.0,432.0 488.0,432.0 487.0,433.0 486.0,433.0 485.0,434.0 481.0,434.0 480.0,435.0 480.0,439.0 481.0,440.0 483.0,440.0 486.0,443.0 542.0,443.0 543.0,442.0 543.0,29.0 542.0,28.0 541.0,28.0 540.0,27.0" /><polygon fill="black" points="392.0,27.0 391.0,28.0 390.0,28.0 389.0,29.0 387.0,29.0 386.0,30.0 385.0,30.0 385.0,35.0 386.0,35.0 388.0,37.0 389.0,37.0 390.0,38.0 402.0,38.0 403.0,37.0 427.0,37.0 428.0,36.0 432.0,36.0 432.0,31.0 431.0,30.0 430.0,30.0 429.0,29.0 428.0,29.0 427.0,28.0 426.0,28.0 425.0,27.0" /><polygon fill="black" points="317.0,27.0 316.0,28.0 311.0,28.0 310.0,29.0 310.0,34.0 311.0,34.0 313.0,36.0 313.0,37.0 314.0,37.0 315.0,38.0 344.0,38.0 347.0,41.0 347.0,190.0 346.0,191.0 335.0,191.0 334.0,192.0 249.0,192.0 248.0,193.0 247.0,193.0 246.0,194.0 245.0,194.0 245.0,195.0 244.0,196.0 242.0,196.0 242.0,202.0 246.0,202.0 247.0,203.0 357.0,203.0 358.0,202.0 358.0,69.0 361.0,66.0 364.0,66.0 364.0,35.0 363.0,34.0 363.0,33.0 362.0,32.0 361.0,32.0 360.0,31.0 360.0,29.0 359.0,29.0 358.0,28.0 357.0,28.0 356.0,27.0" /></svg>